<svg xmlns="http://www.w3.org/2000/svg" viewBox="0 0 48 48">
  <path fill="#FF9900" d="M24.1 31.3c-5.6 0-10.7-1.7-14.8-4.6-.3-.2-.1-.5.2-.3 4.2 2.5 9.4 3.9 14.8 3.9 3.6 0 7.6-.8 11.3-2.3.5-.2 1 .4.5.8-3.1 2.1-7.3 3.3-11 3.3-.3 0-.7 0-1-.1v-.7z"/>
  <path fill="#FF9900" d="M36.5 29.2c-.4-.5-2.8-.3-3.8-.1-.3 0-.4-.2-.1-.4 1.9-1.3 4.9-.9 5.3-.5.4.4-.1 3.5-1.8 5-.3.2-.5.1-.4-.2.4-1 1.3-3.2.8-3.8z"/>
  <path fill="#232F3E" d="M32.7 13.6v-1.4c0-.2.2-.4.4-.4h6.3c.2 0 .4.1.4.4v1.2c0 .2-.2.5-.5.9l-3.3 4.7c1.2 0 2.5.2 3.6.8.2.1.3.3.3.6v1.5c0 .2-.2.4-.5.3-1.9-1-4.5-1.1-6.6 0-.2.1-.4-.1-.4-.3v-1.4c0-.2 0-.6.2-1l3.8-5.4h-3.3c-.2 0-.4-.1-.4-.4zM16.3 21.5h-1.9c-.2 0-.3-.1-.3-.3V13.3c0-.2.2-.3.4-.3h1.8c.2 0 .3.1.3.3v1.3h0c.4-1.2 1.3-1.8 2.5-1.8 1.2 0 2 .6 2.5 1.8.4-1.2 1.3-1.8 2.5-1.8 1 0 2 .4 2.6 1.3.7 1 .6 2.4.6 3.7v4.3c0 .2-.2.3-.4.3h-1.9c-.2 0-.3-.2-.3-.3v-3.6c0-.5 0-1.7-.1-2.2-.2-.8-.7-1-1.4-1-.6 0-1.1.4-1.4 1-.2.6-.2 1.6-.2 2.2v3.6c0 .2-.2.3-.4.3h-1.9c-.2 0-.3-.2-.3-.3v-3.6c0-1.3.2-3.2-1.4-3.2-1.7 0-1.6 1.9-1.6 3.2v3.6c0 .2-.2.3-.4.3zM37.9 12.8c1.3 0 2.5.5 3.2 1.6.6.9.5 2.2.5 3.4v3.5c0 .2-.2.3-.4.3h-1.9c-.2 0-.3-.2-.3-.3V18c0-.5 0-1.7-.1-2.2-.2-.8-.7-1-1.3-1-.6 0-1.1.4-1.3.9-.3.7-.4 1.4-.4 2.2v3.3c0 .2-.2.3-.4.3h-1.9c-.2 0-.3-.2-.3-.3l0-7.9c0-.2.2-.3.4-.3h1.8c.2 0 .3.1.3.3v1.2h0c.5-1.1 1.2-1.7 2.6-1.7h-.5z"/>
  <path fill="#232F3E" d="M11 17.3c0 .9 0 1.7-.4 2.4-.4.6-1 1-1.6 1-.9 0-1.4-.7-1.4-1.7 0-2 1.8-2.3 3.4-2.3v.6zm2.3 5.6c-.2.1-.4.2-.5.1-.8-.6-.9-.9-1.3-1.5-1.3 1.3-2.2 1.7-3.8 1.7-2 0-3.5-1.2-3.5-3.6 0-1.9 1-3.2 2.5-3.8 1.3-.5 3-.7 4.3-.8v-.3c0-.6 0-1.2-.3-1.7-.3-.4-.8-.6-1.3-.6-.9 0-1.7.5-1.9 1.4 0 .2-.2.4-.4.4l-1.9-.2c-.2 0-.4-.2-.3-.5C5.4 11.6 7.7 11 9.8 11c1 0 2.3.3 3.1 1 1 .9.9 2.1.9 3.5v3.1c0 .9.4 1.4.8 1.9.1.2.2.4 0 .5l-1.3 1.1v-.2z"/>
</svg>
