<svg xmlns="http://www.w3.org/2000/svg" viewBox="0 0 48 48">
  <path fill="#999999" d="M34.7 25.2c-1.1 2.6-2.5 5-4 7.2-2.1 3-3.9 5.1-5.2 6.3-2.1 1.9-4.3 2.9-6.7 2.9-1.7 0-3.8-.5-6.2-1.5-2.4-1-4.6-1.5-6.6-1.5-2.1 0-4.4.5-6.8 1.5S3 41.6.7 41.6c-2.3.1-4.5-.9-6.8-3-1.4-1.3-3.2-3.4-5.4-6.5-2.3-3.3-4.2-7.1-5.7-11.4C-18.8 16.6-20 12.6-20 8.7c0-4.9 1.1-9.2 3.2-12.8 1.7-2.9 3.9-5.1 6.7-6.8 2.8-1.7 5.8-2.5 9.1-2.6 1.8 0 4.2.6 7.1 1.7 2.9 1.1 4.8 1.7 5.6 1.7.6 0 2.7-.7 6.3-2 3.4-1.2 6.2-1.7 8.5-1.5 6.3.5 11 3 14.1 7.4-5.6 3.4-8.4 8.2-8.3 14.3.1 4.8 1.8 8.7 5.2 11.9 1.5 1.5 3.2 2.6 5.1 3.4-.4 1.2-.9 2.3-1.3 3.5l-.3-.1zM25.2-12.6c0 3.7-1.4 7.2-4.1 10.4-3.3 3.8-7.3 6.1-11.6 5.7-.1-.5-.1-.9-.1-1.4 0-3.6 1.6-7.4 4.3-10.6 1.4-1.6 3.1-2.9 5.3-4 2.1-1 4.1-1.6 6-1.7.1.5.1 1.1.2 1.6z" transform="translate(20 12) scale(.42)"/>
</svg>
