<svg xmlns="http://www.w3.org/2000/svg" viewBox="0 0 48 48">
  <defs>
    <linearGradient id="mg" x1="0" y1="0" x2="1" y2="1">
      <stop offset="0%" stop-color="#0081FB"/>
      <stop offset="100%" stop-color="#0064E0"/>
    </linearGradient>
  </defs>
  <circle cx="24" cy="24" r="24" fill="url(#mg)"/>
  <path fill="#fff" d="M12.2 24c0-3.5 1.2-6.4 3-8.3 1.5-1.5 3.4-2.4 5.4-2.4 1.6 0 3 .6 4.1 1.5.6.5 1.1 1.1 1.7 2 .5-.9 1.1-1.5 1.7-2 1.1-.9 2.5-1.5 4.1-1.5 2 0 3.9.9 5.4 2.4 1.8 1.9 3 4.8 3 8.3 0 3.6-1.3 6.5-3.1 8.4-2.3 2.5-5.4 4.6-8.8 6.2-.7.3-1.4.6-2.1.9l-.2.1-.2-.1c-.7-.3-1.4-.6-2.1-.9-3.4-1.6-6.5-3.7-8.8-6.2-1.9-1.9-3.1-4.8-3.1-8.4z"/>
</svg>
