<svg xmlns="http://www.w3.org/2000/svg" viewBox="0 0 48 48">
  <path fill="#00A1E0" d="M44.3 22.6c0-1.5-.5-2.7-1.5-3.5-1-1-2.3-1.5-3.8-1.5-1.6 0-3 .6-4.1 1.7-1.1 1.1-1.7 2.5-1.7 4.2 0 1.6.6 3 1.7 4.1 1.1 1.1 2.5 1.6 4.1 1.6.8 0 1.7-.2 2.4-.5.8-.4 1.4-.9 1.9-1.6h-3.4v-2.4h6.2c0 .5.1.9.1 1.4 0 2.5-.8 4.5-2.5 6.1-1.7 1.6-3.7 2.4-6.2 2.4-2.5 0-4.7-.9-6.5-2.6-1.8-1.7-2.7-3.9-2.7-6.4s.9-4.7 2.7-6.4c1.8-1.8 4-2.6 6.5-2.6 1.7 0 3.2.4 4.6 1.1 1.4.7 2.5 1.7 3.3 3l-3.4 2 .3-.1z"/>
  <path fill="#00A1E0" d="M24 4c-5.4 0-10.3 2.1-14.1 5.5-.3.3-.1.7.3.5C14 7.7 18.8 6.3 24 6.3s10 1.4 13.8 3.7c.4.2.6-.2.3-.5C34.3 6.1 29.4 4 24 4z"/>
  <path fill="#00A1E0" d="M24 44c5.4 0 10.3-2.1 14.1-5.5.3-.3.1-.7-.3-.5C34 40.3 29.2 41.7 24 41.7s-10-1.4-13.8-3.7c-.4-.2-.6.2-.3.5C13.7 41.9 18.6 44 24 44z"/>
  <circle fill="#00A1E0" cx="17" cy="24" r="5"/>
</svg>
